<?xml version="1.0" encoding="utf-8" standalone="no"?>
<!DOCTYPE svg PUBLIC "-//W3C//DTD SVG 1.1//EN"
  "http://www.w3.org/Graphics/SVG/1.1/DTD/svg11.dtd">
<!-- Created with matplotlib (https://matplotlib.org/) -->
<svg height="864pt" version="1.1" viewBox="0 0 864 864" width="864pt" xmlns="http://www.w3.org/2000/svg" xmlns:xlink="http://www.w3.org/1999/xlink">
 <defs>
  <style type="text/css">
*{stroke-linecap:butt;stroke-linejoin:round;}
  </style>
 </defs>
 <g id="figure_1">
  <g id="patch_1">
   <path d="M 0 864 
L 864 864 
L 864 0 
L 0 0 
z
" style="fill:#ffffff;"/>
  </g>
  <g id="axes_1">
   <g id="patch_2">
    <path d="M 110.16 768.96 
L 775.44 768.96 
L 775.44 103.68 
L 110.16 103.68 
z
" style="fill:#ffffff;"/>
   </g>
   <g id="PathCollection_1">
    <defs>
     <path d="M 0 3.535534 
C 0.937635 3.535534 1.836992 3.163008 2.5 2.5 
C 3.163008 1.836992 3.535534 0.937635 3.535534 0 
C 3.535534 -0.937635 3.163008 -1.836992 2.5 -2.5 
C 1.836992 -3.163008 0.937635 -3.535534 0 -3.535534 
C -0.937635 -3.535534 -1.836992 -3.163008 -2.5 -2.5 
C -3.163008 -1.836992 -3.535534 -0.937635 -3.535534 0 
C -3.535534 0.937635 -3.163008 1.836992 -2.5 2.5 
C -1.836992 3.163008 -0.937635 3.535534 0 3.535534 
z
" id="m52f8644930" style="stroke:#ff0000;"/>
    </defs>
    <g clip-path="url(#p366ff7b6f1)">
     <use style="fill:#ff0000;stroke:#ff0000;" x="410.302045" xlink:href="#m52f8644930" y="325.242716"/>
    </g>
   </g>
   <g id="PathCollection_2">
    <defs>
     <path d="M 0 7.071068 
C 1.875269 7.071068 3.673985 6.326016 5 5 
C 6.326016 3.673985 7.071068 1.875269 7.071068 0 
C 7.071068 -1.875269 6.326016 -3.673985 5 -5 
C 3.673985 -6.326016 1.875269 -7.071068 0 -7.071068 
C -1.875269 -7.071068 -3.673985 -6.326016 -5 -5 
C -6.326016 -3.673985 -7.071068 -1.875269 -7.071068 0 
C -7.071068 1.875269 -6.326016 3.673985 -5 5 
C -3.673985 6.326016 -1.875269 7.071068 0 7.071068 
z
" id="m4a33946c3f" style="stroke:#4b0082;"/>
    </defs>
    <g clip-path="url(#p366ff7b6f1)">
     <use style="fill:#4b0082;stroke:#4b0082;" x="535.338101" xlink:href="#m4a33946c3f" y="306.502457"/>
    </g>
   </g>
   <g id="PathCollection_3">
    <defs>
     <path d="M -0 7.071068 
L 7.071068 -7.071068 
L -7.071068 -7.071068 
z
" id="ma242489491" style="stroke:#ff0000;"/>
    </defs>
    <g clip-path="url(#p366ff7b6f1)">
     <use style="fill:#ff0000;stroke:#ff0000;" x="325.155932" xlink:href="#ma242489491" y="591.332835"/>
    </g>
   </g>
   <g id="PathCollection_4">
    <defs>
     <path d="M 0 -7.071068 
L -7.071068 7.071068 
L 7.071068 7.071068 
z
" id="m990424d4a5" style="stroke:#4b0082;"/>
    </defs>
    <g clip-path="url(#p366ff7b6f1)">
     <use style="fill:#4b0082;stroke:#4b0082;" x="496.251704" xlink:href="#m990424d4a5" y="294.517256"/>
    </g>
   </g>
   <g id="PathCollection_5">
    <defs>
     <path d="M -7.071068 -0 
L 7.071068 7.071068 
L 7.071068 -7.071068 
z
" id="ma35a93f54e" style="stroke:#1e90ff;"/>
    </defs>
    <g clip-path="url(#p366ff7b6f1)">
     <use style="fill:#1e90ff;stroke:#1e90ff;" x="351.556748" xlink:href="#ma35a93f54e" y="498.300702"/>
    </g>
   </g>
   <g id="PathCollection_6">
    <defs>
     <path d="M 7.071068 0 
L -7.071068 -7.071068 
L -7.071068 7.071068 
z
" id="m290df38454" style="stroke:#ff8c00;"/>
    </defs>
    <g clip-path="url(#p366ff7b6f1)">
     <use style="fill:#ff8c00;stroke:#ff8c00;" x="525.29343" xlink:href="#m290df38454" y="252.064494"/>
    </g>
   </g>
   <g id="PathCollection_7">
    <defs>
     <path d="M -7.071068 7.071068 
L 7.071068 7.071068 
L 7.071068 -7.071068 
L -7.071068 -7.071068 
z
" id="md1c5f68eff" style="stroke:#32cd32;"/>
    </defs>
    <g clip-path="url(#p366ff7b6f1)">
     <use style="fill:#32cd32;stroke:#32cd32;" x="493.828578" xlink:href="#md1c5f68eff" y="341.08184"/>
    </g>
   </g>
   <g id="PathCollection_8">
    <defs>
     <path d="M -2.357023 7.071068 
L 2.357023 7.071068 
L 2.357023 2.357023 
L 7.071068 2.357023 
L 7.071068 -2.357023 
L 2.357023 -2.357023 
L 2.357023 -7.071068 
L -2.357023 -7.071068 
L -2.357023 -2.357023 
L -7.071068 -2.357023 
L -7.071068 2.357023 
L -2.357023 2.357023 
z
" id="m2a44568ed7" style="stroke:#32cd32;"/>
    </defs>
    <g clip-path="url(#p366ff7b6f1)">
     <use style="fill:#32cd32;stroke:#32cd32;" x="403.898178" xlink:href="#m2a44568ed7" y="314.170242"/>
    </g>
   </g>
   <g id="PathCollection_9">
    <defs>
     <path d="M 0 -7.071068 
L -1.587554 -2.18508 
L -6.724985 -2.18508 
L -2.568716 0.834626 
L -4.156269 5.720614 
L -0 2.700907 
L 4.156269 5.720614 
L 2.568716 0.834626 
L 6.724985 -2.18508 
L 1.587554 -2.18508 
z
" id="m3928f1c078" style="stroke:#ff8c00;"/>
    </defs>
    <g clip-path="url(#p366ff7b6f1)">
     <use style="fill:#ff8c00;stroke:#ff8c00;" x="554.590847" xlink:href="#m3928f1c078" y="195.323847"/>
    </g>
   </g>
   <g id="PathCollection_10">
    <defs>
     <path d="M -7.071068 0 
L 7.071068 0 
M 0 7.071068 
L 0 -7.071068 
" id="m552b7abbae" style="stroke:#ff0000;stroke-width:1.5;"/>
    </defs>
    <g clip-path="url(#p366ff7b6f1)">
     <use style="fill:#ff0000;stroke:#ff0000;stroke-width:1.5;" x="492.482043" xlink:href="#m552b7abbae" y="441.819799"/>
    </g>
   </g>
   <g id="PathCollection_11">
    <defs>
     <path d="M -7.071068 7.071068 
L 7.071068 -7.071068 
M -7.071068 -7.071068 
L 7.071068 7.071068 
" id="m60bbc8623e" style="stroke:#ff8c00;stroke-width:1.5;"/>
    </defs>
    <g clip-path="url(#p366ff7b6f1)">
     <use style="fill:#ff8c00;stroke:#ff8c00;stroke-width:1.5;" x="385.791401" xlink:href="#m60bbc8623e" y="393.676868"/>
    </g>
   </g>
   <g id="PathCollection_12">
    <defs>
     <path d="M -3.535534 7.071068 
L 0 3.535534 
L 3.535534 7.071068 
L 7.071068 3.535534 
L 3.535534 0 
L 7.071068 -3.535534 
L 3.535534 -7.071068 
L 0 -3.535534 
L -3.535534 -7.071068 
L -7.071068 -3.535534 
L -3.535534 0 
L -7.071068 3.535534 
z
" id="m14ef67ab09" style="stroke:#ff8c00;"/>
    </defs>
    <g clip-path="url(#p366ff7b6f1)">
     <use style="fill:#ff8c00;stroke:#ff8c00;" x="421.345307" xlink:href="#m14ef67ab09" y="308.455401"/>
    </g>
   </g>
   <g id="PathCollection_13">
    <defs>
     <path d="M -0 10 
L 10 0 
L 0 -10 
L -10 -0 
z
" id="m0ea7237b12" style="stroke:#1e90ff;"/>
    </defs>
    <g clip-path="url(#p366ff7b6f1)">
     <use style="fill:#1e90ff;stroke:#1e90ff;" x="525.945746" xlink:href="#m0ea7237b12" y="109.162224"/>
    </g>
   </g>
   <g id="PathCollection_14">
    <defs>
     <path d="M -0 10 
L 6 0 
L 0 -10 
L -6 -0 
z
" id="m5b16224c19" style="stroke:#32cd32;"/>
    </defs>
    <g clip-path="url(#p366ff7b6f1)">
     <use style="fill:#32cd32;stroke:#32cd32;" x="268.370642" xlink:href="#m5b16224c19" y="360.350034"/>
    </g>
   </g>
   <g id="PathCollection_15">
    <defs>
     <path d="M 0 -7.071068 
L -6.724985 -2.18508 
L -4.156269 5.720614 
L 4.156269 5.720614 
L 6.724985 -2.18508 
z
" id="m104b3b7511" style="stroke:#ff8c00;"/>
    </defs>
    <g clip-path="url(#p366ff7b6f1)">
     <use style="fill:#ff8c00;stroke:#ff8c00;" x="234.456998" xlink:href="#m104b3b7511" y="340.93724"/>
    </g>
   </g>
   <g id="PathCollection_16">
    <defs>
     <path d="M 0 0 
L 0 7.071068 
M 0 0 
L 5.656854 -3.535534 
M 0 0 
L -5.656854 -3.535534 
" id="mcebc2a5d47" style="stroke:#32cd32;stroke-width:1.5;"/>
    </defs>
    <g clip-path="url(#p366ff7b6f1)">
     <use style="fill:#32cd32;stroke:#32cd32;stroke-width:1.5;" x="115.642224" xlink:href="#mcebc2a5d47" y="658.832478"/>
    </g>
   </g>
   <g id="PathCollection_17">
    <defs>
     <path d="M 0 0 
L 7.071068 0 
M 0 0 
L -3.535534 -5.656854 
M 0 0 
L -3.535534 5.656854 
" id="m8ea6def80a" style="stroke:#1e90ff;stroke-width:1.5;"/>
    </defs>
    <g clip-path="url(#p366ff7b6f1)">
     <use style="fill:#1e90ff;stroke:#1e90ff;stroke-width:1.5;" x="557.759899" xlink:href="#m8ea6def80a" y="241.29165"/>
    </g>
   </g>
   <g id="PathCollection_18">
    <defs>
     <path d="M 0 0 
L 7.071068 0 
M 0 0 
L -3.535534 -5.656854 
M 0 0 
L -3.535534 5.656854 
" id="mb62803d565" style="stroke:#32cd32;stroke-width:1.5;"/>
    </defs>
    <g clip-path="url(#p366ff7b6f1)">
     <use style="fill:#32cd32;stroke:#32cd32;stroke-width:1.5;" x="228.730794" xlink:href="#mb62803d565" y="497.144716"/>
    </g>
   </g>
   <g id="PathCollection_19">
    <defs>
     <path d="M 0 0 
L 7.071068 0 
M 0 0 
L -3.535534 -5.656854 
M 0 0 
L -3.535534 5.656854 
" id="m54cf89cd80" style="stroke:#ff0000;stroke-width:1.5;"/>
    </defs>
    <g clip-path="url(#p366ff7b6f1)">
     <use style="fill:#ff0000;stroke:#ff0000;stroke-width:1.5;" x="569.652437" xlink:href="#m54cf89cd80" y="174.367523"/>
    </g>
   </g>
   <g id="PathCollection_20">
    <g clip-path="url(#p366ff7b6f1)">
     <use style="fill:#1e90ff;stroke:#1e90ff;stroke-width:1.5;" x="446.688623" xlink:href="#m8ea6def80a" y="310.944612"/>
    </g>
   </g>
   <g id="PathCollection_21">
    <defs>
     <path d="M 0 0 
L 7.071068 0 
M 0 0 
L -3.535534 -5.656854 
M 0 0 
L -3.535534 5.656854 
" id="m46b0545d11" style="stroke:#ffd700;stroke-width:1.5;"/>
    </defs>
    <g clip-path="url(#p366ff7b6f1)">
     <use style="fill:#ffd700;stroke:#ffd700;stroke-width:1.5;" x="175.82284" xlink:href="#m46b0545d11" y="610.678335"/>
    </g>
   </g>
   <g id="PathCollection_22">
    <defs>
     <path d="M 0 7.071068 
C 1.875269 7.071068 3.673985 6.326016 5 5 
C 6.326016 3.673985 7.071068 1.875269 7.071068 0 
C 7.071068 -1.875269 6.326016 -3.673985 5 -5 
C 3.673985 -6.326016 1.875269 -7.071068 0 -7.071068 
C -1.875269 -7.071068 -3.673985 -6.326016 -5 -5 
C -6.326016 -3.673985 -7.071068 -1.875269 -7.071068 0 
C -7.071068 1.875269 -6.326016 3.673985 -5 5 
C -3.673985 6.326016 -1.875269 7.071068 0 7.071068 
z
" id="m25e6350d2c" style="stroke:#1f77b4;stroke-opacity:0.5;"/>
    </defs>
    <g clip-path="url(#p366ff7b6f1)">
     <use style="fill:#1f77b4;fill-opacity:0.5;stroke:#1f77b4;stroke-opacity:0.5;" x="405.66212" xlink:href="#m25e6350d2c" y="360.295108"/>
    </g>
   </g>
   <g id="matplotlib.axis_1">
    <g id="xtick_1">
     <g id="line2d_1">
      <defs>
       <path d="M 0 0 
L 0 3.5 
" id="m9e5c8420bb" style="stroke:#000000;stroke-width:0.8;"/>
      </defs>
      <g>
       <use style="stroke:#000000;stroke-width:0.8;" x="247.114007" xlink:href="#m9e5c8420bb" y="768.96"/>
      </g>
     </g>
     <g id="text_1">
      <!-- −0.2 -->
      <defs>
       <path d="M 10.59375 35.5 
L 73.1875 35.5 
L 73.1875 27.203125 
L 10.59375 27.203125 
z
" id="DejaVuSans-8722"/>
       <path d="M 31.78125 66.40625 
Q 24.171875 66.40625 20.328125 58.90625 
Q 16.5 51.421875 16.5 36.375 
Q 16.5 21.390625 20.328125 13.890625 
Q 24.171875 6.390625 31.78125 6.390625 
Q 39.453125 6.390625 43.28125 13.890625 
Q 47.125 21.390625 47.125 36.375 
Q 47.125 51.421875 43.28125 58.90625 
Q 39.453125 66.40625 31.78125 66.40625 
z
M 31.78125 74.21875 
Q 44.046875 74.21875 50.515625 64.515625 
Q 56.984375 54.828125 56.984375 36.375 
Q 56.984375 17.96875 50.515625 8.265625 
Q 44.046875 -1.421875 31.78125 -1.421875 
Q 19.53125 -1.421875 13.0625 8.265625 
Q 6.59375 17.96875 6.59375 36.375 
Q 6.59375 54.828125 13.0625 64.515625 
Q 19.53125 74.21875 31.78125 74.21875 
z
" id="DejaVuSans-48"/>
       <path d="M 10.6875 12.40625 
L 21 12.40625 
L 21 0 
L 10.6875 0 
z
" id="DejaVuSans-46"/>
       <path d="M 19.1875 8.296875 
L 53.609375 8.296875 
L 53.609375 0 
L 7.328125 0 
L 7.328125 8.296875 
Q 12.9375 14.109375 22.625 23.890625 
Q 32.328125 33.6875 34.8125 36.53125 
Q 39.546875 41.84375 41.421875 45.53125 
Q 43.3125 49.21875 43.3125 52.78125 
Q 43.3125 58.59375 39.234375 62.25 
Q 35.15625 65.921875 28.609375 65.921875 
Q 23.96875 65.921875 18.8125 64.3125 
Q 13.671875 62.703125 7.8125 59.421875 
L 7.8125 69.390625 
Q 13.765625 71.78125 18.9375 73 
Q 24.125 74.21875 28.421875 74.21875 
Q 39.75 74.21875 46.484375 68.546875 
Q 53.21875 62.890625 53.21875 53.421875 
Q 53.21875 48.921875 51.53125 44.890625 
Q 49.859375 40.875 45.40625 35.40625 
Q 44.1875 33.984375 37.640625 27.21875 
Q 31.109375 20.453125 19.1875 8.296875 
z
" id="DejaVuSans-50"/>
      </defs>
      <g transform="translate(234.972601 783.558437)scale(0.1 -0.1)">
       <use xlink:href="#DejaVuSans-8722"/>
       <use x="83.789062" xlink:href="#DejaVuSans-48"/>
       <use x="147.412109" xlink:href="#DejaVuSans-46"/>
       <use x="179.199219" xlink:href="#DejaVuSans-50"/>
      </g>
     </g>
    </g>
    <g id="xtick_2">
     <g id="line2d_2">
      <g>
       <use style="stroke:#000000;stroke-width:0.8;" x="387.977758" xlink:href="#m9e5c8420bb" y="768.96"/>
      </g>
     </g>
     <g id="text_2">
      <!-- 0.0 -->
      <g transform="translate(380.026195 783.558437)scale(0.1 -0.1)">
       <use xlink:href="#DejaVuSans-48"/>
       <use x="63.623047" xlink:href="#DejaVuSans-46"/>
       <use x="95.410156" xlink:href="#DejaVuSans-48"/>
      </g>
     </g>
    </g>
    <g id="xtick_3">
     <g id="line2d_3">
      <g>
       <use style="stroke:#000000;stroke-width:0.8;" x="528.841508" xlink:href="#m9e5c8420bb" y="768.96"/>
      </g>
     </g>
     <g id="text_3">
      <!-- 0.2 -->
      <g transform="translate(520.889946 783.558437)scale(0.1 -0.1)">
       <use xlink:href="#DejaVuSans-48"/>
       <use x="63.623047" xlink:href="#DejaVuSans-46"/>
       <use x="95.410156" xlink:href="#DejaVuSans-50"/>
      </g>
     </g>
    </g>
    <g id="xtick_4">
     <g id="line2d_4">
      <g>
       <use style="stroke:#000000;stroke-width:0.8;" x="669.705259" xlink:href="#m9e5c8420bb" y="768.96"/>
      </g>
     </g>
     <g id="text_4">
      <!-- 0.4 -->
      <defs>
       <path d="M 37.796875 64.3125 
L 12.890625 25.390625 
L 37.796875 25.390625 
z
M 35.203125 72.90625 
L 47.609375 72.90625 
L 47.609375 25.390625 
L 58.015625 25.390625 
L 58.015625 17.1875 
L 47.609375 17.1875 
L 47.609375 0 
L 37.796875 0 
L 37.796875 17.1875 
L 4.890625 17.1875 
L 4.890625 26.703125 
z
" id="DejaVuSans-52"/>
      </defs>
      <g transform="translate(661.753696 783.558437)scale(0.1 -0.1)">
       <use xlink:href="#DejaVuSans-48"/>
       <use x="63.623047" xlink:href="#DejaVuSans-46"/>
       <use x="95.410156" xlink:href="#DejaVuSans-52"/>
      </g>
     </g>
    </g>
    <g id="text_5">
     <!-- descr_right_mean Average Non Target -->
     <defs>
      <path d="M 45.40625 46.390625 
L 45.40625 75.984375 
L 54.390625 75.984375 
L 54.390625 0 
L 45.40625 0 
L 45.40625 8.203125 
Q 42.578125 3.328125 38.25 0.953125 
Q 33.9375 -1.421875 27.875 -1.421875 
Q 17.96875 -1.421875 11.734375 6.484375 
Q 5.515625 14.40625 5.515625 27.296875 
Q 5.515625 40.1875 11.734375 48.09375 
Q 17.96875 56 27.875 56 
Q 33.9375 56 38.25 53.625 
Q 42.578125 51.265625 45.40625 46.390625 
z
M 14.796875 27.296875 
Q 14.796875 17.390625 18.875 11.75 
Q 22.953125 6.109375 30.078125 6.109375 
Q 37.203125 6.109375 41.296875 11.75 
Q 45.40625 17.390625 45.40625 27.296875 
Q 45.40625 37.203125 41.296875 42.84375 
Q 37.203125 48.484375 30.078125 48.484375 
Q 22.953125 48.484375 18.875 42.84375 
Q 14.796875 37.203125 14.796875 27.296875 
z
" id="DejaVuSans-100"/>
      <path d="M 56.203125 29.59375 
L 56.203125 25.203125 
L 14.890625 25.203125 
Q 15.484375 15.921875 20.484375 11.0625 
Q 25.484375 6.203125 34.421875 6.203125 
Q 39.59375 6.203125 44.453125 7.46875 
Q 49.3125 8.734375 54.109375 11.28125 
L 54.109375 2.78125 
Q 49.265625 0.734375 44.1875 -0.34375 
Q 39.109375 -1.421875 33.890625 -1.421875 
Q 20.796875 -1.421875 13.15625 6.1875 
Q 5.515625 13.8125 5.515625 26.8125 
Q 5.515625 40.234375 12.765625 48.109375 
Q 20.015625 56 32.328125 56 
Q 43.359375 56 49.78125 48.890625 
Q 56.203125 41.796875 56.203125 29.59375 
z
M 47.21875 32.234375 
Q 47.125 39.59375 43.09375 43.984375 
Q 39.0625 48.390625 32.421875 48.390625 
Q 24.90625 48.390625 20.390625 44.140625 
Q 15.875 39.890625 15.1875 32.171875 
z
" id="DejaVuSans-101"/>
      <path d="M 44.28125 53.078125 
L 44.28125 44.578125 
Q 40.484375 46.53125 36.375 47.5 
Q 32.28125 48.484375 27.875 48.484375 
Q 21.1875 48.484375 17.84375 46.4375 
Q 14.5 44.390625 14.5 40.28125 
Q 14.5 37.15625 16.890625 35.375 
Q 19.28125 33.59375 26.515625 31.984375 
L 29.59375 31.296875 
Q 39.15625 29.25 43.1875 25.515625 
Q 47.21875 21.78125 47.21875 15.09375 
Q 47.21875 7.46875 41.1875 3.015625 
Q 35.15625 -1.421875 24.609375 -1.421875 
Q 20.21875 -1.421875 15.453125 -0.5625 
Q 10.6875 0.296875 5.421875 2 
L 5.421875 11.28125 
Q 10.40625 8.6875 15.234375 7.390625 
Q 20.0625 6.109375 24.8125 6.109375 
Q 31.15625 6.109375 34.5625 8.28125 
Q 37.984375 10.453125 37.984375 14.40625 
Q 37.984375 18.0625 35.515625 20.015625 
Q 33.0625 21.96875 24.703125 23.78125 
L 21.578125 24.515625 
Q 13.234375 26.265625 9.515625 29.90625 
Q 5.8125 33.546875 5.8125 39.890625 
Q 5.8125 47.609375 11.28125 51.796875 
Q 16.75 56 26.8125 56 
Q 31.78125 56 36.171875 55.265625 
Q 40.578125 54.546875 44.28125 53.078125 
z
" id="DejaVuSans-115"/>
      <path d="M 48.78125 52.59375 
L 48.78125 44.1875 
Q 44.96875 46.296875 41.140625 47.34375 
Q 37.3125 48.390625 33.40625 48.390625 
Q 24.65625 48.390625 19.8125 42.84375 
Q 14.984375 37.3125 14.984375 27.296875 
Q 14.984375 17.28125 19.8125 11.734375 
Q 24.65625 6.203125 33.40625 6.203125 
Q 37.3125 6.203125 41.140625 7.25 
Q 44.96875 8.296875 48.78125 10.40625 
L 48.78125 2.09375 
Q 45.015625 0.34375 40.984375 -0.53125 
Q 36.96875 -1.421875 32.421875 -1.421875 
Q 20.0625 -1.421875 12.78125 6.34375 
Q 5.515625 14.109375 5.515625 27.296875 
Q 5.515625 40.671875 12.859375 48.328125 
Q 20.21875 56 33.015625 56 
Q 37.15625 56 41.109375 55.140625 
Q 45.0625 54.296875 48.78125 52.59375 
z
" id="DejaVuSans-99"/>
      <path d="M 41.109375 46.296875 
Q 39.59375 47.171875 37.8125 47.578125 
Q 36.03125 48 33.890625 48 
Q 26.265625 48 22.1875 43.046875 
Q 18.109375 38.09375 18.109375 28.8125 
L 18.109375 0 
L 9.078125 0 
L 9.078125 54.6875 
L 18.109375 54.6875 
L 18.109375 46.1875 
Q 20.953125 51.171875 25.484375 53.578125 
Q 30.03125 56 36.53125 56 
Q 37.453125 56 38.578125 55.875 
Q 39.703125 55.765625 41.0625 55.515625 
z
" id="DejaVuSans-114"/>
      <path d="M 50.984375 -16.609375 
L 50.984375 -23.578125 
L -0.984375 -23.578125 
L -0.984375 -16.609375 
z
" id="DejaVuSans-95"/>
      <path d="M 9.421875 54.6875 
L 18.40625 54.6875 
L 18.40625 0 
L 9.421875 0 
z
M 9.421875 75.984375 
L 18.40625 75.984375 
L 18.40625 64.59375 
L 9.421875 64.59375 
z
" id="DejaVuSans-105"/>
      <path d="M 45.40625 27.984375 
Q 45.40625 37.75 41.375 43.109375 
Q 37.359375 48.484375 30.078125 48.484375 
Q 22.859375 48.484375 18.828125 43.109375 
Q 14.796875 37.75 14.796875 27.984375 
Q 14.796875 18.265625 18.828125 12.890625 
Q 22.859375 7.515625 30.078125 7.515625 
Q 37.359375 7.515625 41.375 12.890625 
Q 45.40625 18.265625 45.40625 27.984375 
z
M 54.390625 6.78125 
Q 54.390625 -7.171875 48.1875 -13.984375 
Q 42 -20.796875 29.203125 -20.796875 
Q 24.46875 -20.796875 20.265625 -20.09375 
Q 16.0625 -19.390625 12.109375 -17.921875 
L 12.109375 -9.1875 
Q 16.0625 -11.328125 19.921875 -12.34375 
Q 23.78125 -13.375 27.78125 -13.375 
Q 36.625 -13.375 41.015625 -8.765625 
Q 45.40625 -4.15625 45.40625 5.171875 
L 45.40625 9.625 
Q 42.625 4.78125 38.28125 2.390625 
Q 33.9375 0 27.875 0 
Q 17.828125 0 11.671875 7.65625 
Q 5.515625 15.328125 5.515625 27.984375 
Q 5.515625 40.671875 11.671875 48.328125 
Q 17.828125 56 27.875 56 
Q 33.9375 56 38.28125 53.609375 
Q 42.625 51.21875 45.40625 46.390625 
L 45.40625 54.6875 
L 54.390625 54.6875 
z
" id="DejaVuSans-103"/>
      <path d="M 54.890625 33.015625 
L 54.890625 0 
L 45.90625 0 
L 45.90625 32.71875 
Q 45.90625 40.484375 42.875 44.328125 
Q 39.84375 48.1875 33.796875 48.1875 
Q 26.515625 48.1875 22.3125 43.546875 
Q 18.109375 38.921875 18.109375 30.90625 
L 18.109375 0 
L 9.078125 0 
L 9.078125 75.984375 
L 18.109375 75.984375 
L 18.109375 46.1875 
Q 21.34375 51.125 25.703125 53.5625 
Q 30.078125 56 35.796875 56 
Q 45.21875 56 50.046875 50.171875 
Q 54.890625 44.34375 54.890625 33.015625 
z
" id="DejaVuSans-104"/>
      <path d="M 18.3125 70.21875 
L 18.3125 54.6875 
L 36.8125 54.6875 
L 36.8125 47.703125 
L 18.3125 47.703125 
L 18.3125 18.015625 
Q 18.3125 11.328125 20.140625 9.421875 
Q 21.96875 7.515625 27.59375 7.515625 
L 36.8125 7.515625 
L 36.8125 0 
L 27.59375 0 
Q 17.1875 0 13.234375 3.875 
Q 9.28125 7.765625 9.28125 18.015625 
L 9.28125 47.703125 
L 2.6875 47.703125 
L 2.6875 54.6875 
L 9.28125 54.6875 
L 9.28125 70.21875 
z
" id="DejaVuSans-116"/>
      <path d="M 52 44.1875 
Q 55.375 50.25 60.0625 53.125 
Q 64.75 56 71.09375 56 
Q 79.640625 56 84.28125 50.015625 
Q 88.921875 44.046875 88.921875 33.015625 
L 88.921875 0 
L 79.890625 0 
L 79.890625 32.71875 
Q 79.890625 40.578125 77.09375 44.375 
Q 74.3125 48.1875 68.609375 48.1875 
Q 61.625 48.1875 57.5625 43.546875 
Q 53.515625 38.921875 53.515625 30.90625 
L 53.515625 0 
L 44.484375 0 
L 44.484375 32.71875 
Q 44.484375 40.625 41.703125 44.40625 
Q 38.921875 48.1875 33.109375 48.1875 
Q 26.21875 48.1875 22.15625 43.53125 
Q 18.109375 38.875 18.109375 30.90625 
L 18.109375 0 
L 9.078125 0 
L 9.078125 54.6875 
L 18.109375 54.6875 
L 18.109375 46.1875 
Q 21.1875 51.21875 25.484375 53.609375 
Q 29.78125 56 35.6875 56 
Q 41.65625 56 45.828125 52.96875 
Q 50 49.953125 52 44.1875 
z
" id="DejaVuSans-109"/>
      <path d="M 34.28125 27.484375 
Q 23.390625 27.484375 19.1875 25 
Q 14.984375 22.515625 14.984375 16.5 
Q 14.984375 11.71875 18.140625 8.90625 
Q 21.296875 6.109375 26.703125 6.109375 
Q 34.1875 6.109375 38.703125 11.40625 
Q 43.21875 16.703125 43.21875 25.484375 
L 43.21875 27.484375 
z
M 52.203125 31.203125 
L 52.203125 0 
L 43.21875 0 
L 43.21875 8.296875 
Q 40.140625 3.328125 35.546875 0.953125 
Q 30.953125 -1.421875 24.3125 -1.421875 
Q 15.921875 -1.421875 10.953125 3.296875 
Q 6 8.015625 6 15.921875 
Q 6 25.140625 12.171875 29.828125 
Q 18.359375 34.515625 30.609375 34.515625 
L 43.21875 34.515625 
L 43.21875 35.40625 
Q 43.21875 41.609375 39.140625 45 
Q 35.0625 48.390625 27.6875 48.390625 
Q 23 48.390625 18.546875 47.265625 
Q 14.109375 46.140625 10.015625 43.890625 
L 10.015625 52.203125 
Q 14.9375 54.109375 19.578125 55.046875 
Q 24.21875 56 28.609375 56 
Q 40.484375 56 46.34375 49.84375 
Q 52.203125 43.703125 52.203125 31.203125 
z
" id="DejaVuSans-97"/>
      <path d="M 54.890625 33.015625 
L 54.890625 0 
L 45.90625 0 
L 45.90625 32.71875 
Q 45.90625 40.484375 42.875 44.328125 
Q 39.84375 48.1875 33.796875 48.1875 
Q 26.515625 48.1875 22.3125 43.546875 
Q 18.109375 38.921875 18.109375 30.90625 
L 18.109375 0 
L 9.078125 0 
L 9.078125 54.6875 
L 18.109375 54.6875 
L 18.109375 46.1875 
Q 21.34375 51.125 25.703125 53.5625 
Q 30.078125 56 35.796875 56 
Q 45.21875 56 50.046875 50.171875 
Q 54.890625 44.34375 54.890625 33.015625 
z
" id="DejaVuSans-110"/>
      <path id="DejaVuSans-32"/>
      <path d="M 34.1875 63.1875 
L 20.796875 26.90625 
L 47.609375 26.90625 
z
M 28.609375 72.90625 
L 39.796875 72.90625 
L 67.578125 0 
L 57.328125 0 
L 50.6875 18.703125 
L 17.828125 18.703125 
L 11.1875 0 
L 0.78125 0 
z
" id="DejaVuSans-65"/>
      <path d="M 2.984375 54.6875 
L 12.5 54.6875 
L 29.59375 8.796875 
L 46.6875 54.6875 
L 56.203125 54.6875 
L 35.6875 0 
L 23.484375 0 
z
" id="DejaVuSans-118"/>
      <path d="M 9.8125 72.90625 
L 23.09375 72.90625 
L 55.421875 11.921875 
L 55.421875 72.90625 
L 64.984375 72.90625 
L 64.984375 0 
L 51.703125 0 
L 19.390625 60.984375 
L 19.390625 0 
L 9.8125 0 
z
" id="DejaVuSans-78"/>
      <path d="M 30.609375 48.390625 
Q 23.390625 48.390625 19.1875 42.75 
Q 14.984375 37.109375 14.984375 27.296875 
Q 14.984375 17.484375 19.15625 11.84375 
Q 23.34375 6.203125 30.609375 6.203125 
Q 37.796875 6.203125 41.984375 11.859375 
Q 46.1875 17.53125 46.1875 27.296875 
Q 46.1875 37.015625 41.984375 42.703125 
Q 37.796875 48.390625 30.609375 48.390625 
z
M 30.609375 56 
Q 42.328125 56 49.015625 48.375 
Q 55.71875 40.765625 55.71875 27.296875 
Q 55.71875 13.875 49.015625 6.21875 
Q 42.328125 -1.421875 30.609375 -1.421875 
Q 18.84375 -1.421875 12.171875 6.21875 
Q 5.515625 13.875 5.515625 27.296875 
Q 5.515625 40.765625 12.171875 48.375 
Q 18.84375 56 30.609375 56 
z
" id="DejaVuSans-111"/>
      <path d="M -0.296875 72.90625 
L 61.375 72.90625 
L 61.375 64.59375 
L 35.5 64.59375 
L 35.5 0 
L 25.59375 0 
L 25.59375 64.59375 
L -0.296875 64.59375 
z
" id="DejaVuSans-84"/>
     </defs>
     <g transform="translate(346.282812 797.236562)scale(0.1 -0.1)">
      <use xlink:href="#DejaVuSans-100"/>
      <use x="63.476562" xlink:href="#DejaVuSans-101"/>
      <use x="125" xlink:href="#DejaVuSans-115"/>
      <use x="177.099609" xlink:href="#DejaVuSans-99"/>
      <use x="232.080078" xlink:href="#DejaVuSans-114"/>
      <use x="273.193359" xlink:href="#DejaVuSans-95"/>
      <use x="323.193359" xlink:href="#DejaVuSans-114"/>
      <use x="364.306641" xlink:href="#DejaVuSans-105"/>
      <use x="392.089844" xlink:href="#DejaVuSans-103"/>
      <use x="455.566406" xlink:href="#DejaVuSans-104"/>
      <use x="518.945312" xlink:href="#DejaVuSans-116"/>
      <use x="558.154297" xlink:href="#DejaVuSans-95"/>
      <use x="608.154297" xlink:href="#DejaVuSans-109"/>
      <use x="705.566406" xlink:href="#DejaVuSans-101"/>
      <use x="767.089844" xlink:href="#DejaVuSans-97"/>
      <use x="828.369141" xlink:href="#DejaVuSans-110"/>
      <use x="891.748047" xlink:href="#DejaVuSans-32"/>
      <use x="923.535156" xlink:href="#DejaVuSans-65"/>
      <use x="991.865234" xlink:href="#DejaVuSans-118"/>
      <use x="1051.044922" xlink:href="#DejaVuSans-101"/>
      <use x="1112.568359" xlink:href="#DejaVuSans-114"/>
      <use x="1153.681641" xlink:href="#DejaVuSans-97"/>
      <use x="1214.960938" xlink:href="#DejaVuSans-103"/>
      <use x="1278.4375" xlink:href="#DejaVuSans-101"/>
      <use x="1339.960938" xlink:href="#DejaVuSans-32"/>
      <use x="1371.748047" xlink:href="#DejaVuSans-78"/>
      <use x="1446.552734" xlink:href="#DejaVuSans-111"/>
      <use x="1507.734375" xlink:href="#DejaVuSans-110"/>
      <use x="1571.113281" xlink:href="#DejaVuSans-32"/>
      <use x="1602.900391" xlink:href="#DejaVuSans-84"/>
      <use x="1663.734375" xlink:href="#DejaVuSans-97"/>
      <use x="1725.013672" xlink:href="#DejaVuSans-114"/>
      <use x="1766.111328" xlink:href="#DejaVuSans-103"/>
      <use x="1829.587891" xlink:href="#DejaVuSans-101"/>
      <use x="1891.111328" xlink:href="#DejaVuSans-116"/>
     </g>
    </g>
   </g>
   <g id="matplotlib.axis_2">
    <g id="ytick_1">
     <g id="line2d_5">
      <defs>
       <path d="M 0 0 
L -3.5 0 
" id="m9c05fbaba7" style="stroke:#000000;stroke-width:0.8;"/>
      </defs>
      <g>
       <use style="stroke:#000000;stroke-width:0.8;" x="110.16" xlink:href="#m9c05fbaba7" y="632.005993"/>
      </g>
     </g>
     <g id="text_6">
      <!-- −0.2 -->
      <g transform="translate(78.877187 635.805212)scale(0.1 -0.1)">
       <use xlink:href="#DejaVuSans-8722"/>
       <use x="83.789062" xlink:href="#DejaVuSans-48"/>
       <use x="147.412109" xlink:href="#DejaVuSans-46"/>
       <use x="179.199219" xlink:href="#DejaVuSans-50"/>
      </g>
     </g>
    </g>
    <g id="ytick_2">
     <g id="line2d_6">
      <g>
       <use style="stroke:#000000;stroke-width:0.8;" x="110.16" xlink:href="#m9c05fbaba7" y="491.142242"/>
      </g>
     </g>
     <g id="text_7">
      <!-- 0.0 -->
      <g transform="translate(87.256875 494.941461)scale(0.1 -0.1)">
       <use xlink:href="#DejaVuSans-48"/>
       <use x="63.623047" xlink:href="#DejaVuSans-46"/>
       <use x="95.410156" xlink:href="#DejaVuSans-48"/>
      </g>
     </g>
    </g>
    <g id="ytick_3">
     <g id="line2d_7">
      <g>
       <use style="stroke:#000000;stroke-width:0.8;" x="110.16" xlink:href="#m9c05fbaba7" y="350.278492"/>
      </g>
     </g>
     <g id="text_8">
      <!-- 0.2 -->
      <g transform="translate(87.256875 354.077711)scale(0.1 -0.1)">
       <use xlink:href="#DejaVuSans-48"/>
       <use x="63.623047" xlink:href="#DejaVuSans-46"/>
       <use x="95.410156" xlink:href="#DejaVuSans-50"/>
      </g>
     </g>
    </g>
    <g id="ytick_4">
     <g id="line2d_8">
      <g>
       <use style="stroke:#000000;stroke-width:0.8;" x="110.16" xlink:href="#m9c05fbaba7" y="209.414741"/>
      </g>
     </g>
     <g id="text_9">
      <!-- 0.4 -->
      <g transform="translate(87.256875 213.21396)scale(0.1 -0.1)">
       <use xlink:href="#DejaVuSans-48"/>
       <use x="63.623047" xlink:href="#DejaVuSans-46"/>
       <use x="95.410156" xlink:href="#DejaVuSans-52"/>
      </g>
     </g>
    </g>
    <g id="text_10">
     <!-- descr_right_mean Target -->
     <g transform="translate(72.519375 498.867656)rotate(-90)scale(0.1 -0.1)">
      <use xlink:href="#DejaVuSans-100"/>
      <use x="63.476562" xlink:href="#DejaVuSans-101"/>
      <use x="125" xlink:href="#DejaVuSans-115"/>
      <use x="177.099609" xlink:href="#DejaVuSans-99"/>
      <use x="232.080078" xlink:href="#DejaVuSans-114"/>
      <use x="273.193359" xlink:href="#DejaVuSans-95"/>
      <use x="323.193359" xlink:href="#DejaVuSans-114"/>
      <use x="364.306641" xlink:href="#DejaVuSans-105"/>
      <use x="392.089844" xlink:href="#DejaVuSans-103"/>
      <use x="455.566406" xlink:href="#DejaVuSans-104"/>
      <use x="518.945312" xlink:href="#DejaVuSans-116"/>
      <use x="558.154297" xlink:href="#DejaVuSans-95"/>
      <use x="608.154297" xlink:href="#DejaVuSans-109"/>
      <use x="705.566406" xlink:href="#DejaVuSans-101"/>
      <use x="767.089844" xlink:href="#DejaVuSans-97"/>
      <use x="828.369141" xlink:href="#DejaVuSans-110"/>
      <use x="891.748047" xlink:href="#DejaVuSans-32"/>
      <use x="923.535156" xlink:href="#DejaVuSans-84"/>
      <use x="984.369141" xlink:href="#DejaVuSans-97"/>
      <use x="1045.648438" xlink:href="#DejaVuSans-114"/>
      <use x="1086.746094" xlink:href="#DejaVuSans-103"/>
      <use x="1150.222656" xlink:href="#DejaVuSans-101"/>
      <use x="1211.746094" xlink:href="#DejaVuSans-116"/>
     </g>
    </g>
   </g>
   <g id="LineCollection_1">
    <path clip-path="url(#p366ff7b6f1)" d="M 376.002174 360.295108 
L 435.322066 360.295108 
" style="fill:none;stroke:#1f77b4;stroke-width:1.5;"/>
   </g>
   <g id="LineCollection_2">
    <path clip-path="url(#p366ff7b6f1)" d="M 405.66212 391.838728 
L 405.66212 328.751488 
" style="fill:none;stroke:#1f77b4;stroke-width:1.5;"/>
   </g>
   <g id="line2d_9">
    <path clip-path="url(#p366ff7b6f1)" d="M 405.66212 360.295108 
" style="fill:none;stroke:#1f77b4;stroke-linecap:square;stroke-width:1.5;"/>
   </g>
   <g id="patch_3">
    <path d="M 110.16 768.96 
L 110.16 103.68 
" style="fill:none;stroke:#000000;stroke-linecap:square;stroke-linejoin:miter;stroke-width:0.8;"/>
   </g>
   <g id="patch_4">
    <path d="M 775.44 768.96 
L 775.44 103.68 
" style="fill:none;stroke:#000000;stroke-linecap:square;stroke-linejoin:miter;stroke-width:0.8;"/>
   </g>
   <g id="patch_5">
    <path d="M 110.16 768.96 
L 775.44 768.96 
" style="fill:none;stroke:#000000;stroke-linecap:square;stroke-linejoin:miter;stroke-width:0.8;"/>
   </g>
   <g id="patch_6">
    <path d="M 110.16 103.68 
L 775.44 103.68 
" style="fill:none;stroke:#000000;stroke-linecap:square;stroke-linejoin:miter;stroke-width:0.8;"/>
   </g>
   <g id="legend_1">
    <g id="patch_7">
     <path d="M 782.44 591.940312 
L 827.165 591.940312 
Q 829.165 591.940312 829.165 589.940312 
L 829.165 282.699687 
Q 829.165 280.699687 827.165 280.699687 
L 782.44 280.699687 
Q 780.44 280.699687 780.44 282.699687 
L 780.44 589.940312 
Q 780.44 591.940312 782.44 591.940312 
z
" style="fill:#ffffff;opacity:0.8;stroke:#cccccc;stroke-linejoin:miter;"/>
    </g>
    <g id="PathCollection_23">
     <g>
      <use style="fill:#ff0000;stroke:#ff0000;" x="794.44" xlink:href="#m52f8644930" y="289.673125"/>
     </g>
    </g>
    <g id="text_11">
     <!-- 0 -->
     <g transform="translate(812.44 292.298125)scale(0.1 -0.1)">
      <use xlink:href="#DejaVuSans-48"/>
     </g>
    </g>
    <g id="PathCollection_24">
     <g>
      <use style="fill:#4b0082;stroke:#4b0082;" x="794.44" xlink:href="#m4a33946c3f" y="304.35125"/>
     </g>
    </g>
    <g id="text_12">
     <!-- 1 -->
     <defs>
      <path d="M 12.40625 8.296875 
L 28.515625 8.296875 
L 28.515625 63.921875 
L 10.984375 60.40625 
L 10.984375 69.390625 
L 28.421875 72.90625 
L 38.28125 72.90625 
L 38.28125 8.296875 
L 54.390625 8.296875 
L 54.390625 0 
L 12.40625 0 
z
" id="DejaVuSans-49"/>
     </defs>
     <g transform="translate(812.44 306.97625)scale(0.1 -0.1)">
      <use xlink:href="#DejaVuSans-49"/>
     </g>
    </g>
    <g id="PathCollection_25">
     <g>
      <use style="fill:#ff0000;stroke:#ff0000;" x="794.44" xlink:href="#ma242489491" y="319.029375"/>
     </g>
    </g>
    <g id="text_13">
     <!-- 2 -->
     <g transform="translate(812.44 321.654375)scale(0.1 -0.1)">
      <use xlink:href="#DejaVuSans-50"/>
     </g>
    </g>
    <g id="PathCollection_26">
     <g>
      <use style="fill:#4b0082;stroke:#4b0082;" x="794.44" xlink:href="#m990424d4a5" y="333.7075"/>
     </g>
    </g>
    <g id="text_14">
     <!-- 3 -->
     <defs>
      <path d="M 40.578125 39.3125 
Q 47.65625 37.796875 51.625 33 
Q 55.609375 28.21875 55.609375 21.1875 
Q 55.609375 10.40625 48.1875 4.484375 
Q 40.765625 -1.421875 27.09375 -1.421875 
Q 22.515625 -1.421875 17.65625 -0.515625 
Q 12.796875 0.390625 7.625 2.203125 
L 7.625 11.71875 
Q 11.71875 9.328125 16.59375 8.109375 
Q 21.484375 6.890625 26.8125 6.890625 
Q 36.078125 6.890625 40.9375 10.546875 
Q 45.796875 14.203125 45.796875 21.1875 
Q 45.796875 27.640625 41.28125 31.265625 
Q 36.765625 34.90625 28.71875 34.90625 
L 20.21875 34.90625 
L 20.21875 43.015625 
L 29.109375 43.015625 
Q 36.375 43.015625 40.234375 45.921875 
Q 44.09375 48.828125 44.09375 54.296875 
Q 44.09375 59.90625 40.109375 62.90625 
Q 36.140625 65.921875 28.71875 65.921875 
Q 24.65625 65.921875 20.015625 65.03125 
Q 15.375 64.15625 9.8125 62.3125 
L 9.8125 71.09375 
Q 15.4375 72.65625 20.34375 73.4375 
Q 25.25 74.21875 29.59375 74.21875 
Q 40.828125 74.21875 47.359375 69.109375 
Q 53.90625 64.015625 53.90625 55.328125 
Q 53.90625 49.265625 50.4375 45.09375 
Q 46.96875 40.921875 40.578125 39.3125 
z
" id="DejaVuSans-51"/>
     </defs>
     <g transform="translate(812.44 336.3325)scale(0.1 -0.1)">
      <use xlink:href="#DejaVuSans-51"/>
     </g>
    </g>
    <g id="PathCollection_27">
     <g>
      <use style="fill:#1e90ff;stroke:#1e90ff;" x="794.44" xlink:href="#ma35a93f54e" y="348.385625"/>
     </g>
    </g>
    <g id="text_15">
     <!-- 4 -->
     <g transform="translate(812.44 351.010625)scale(0.1 -0.1)">
      <use xlink:href="#DejaVuSans-52"/>
     </g>
    </g>
    <g id="PathCollection_28">
     <g>
      <use style="fill:#ff8c00;stroke:#ff8c00;" x="794.44" xlink:href="#m290df38454" y="363.06375"/>
     </g>
    </g>
    <g id="text_16">
     <!-- 5 -->
     <defs>
      <path d="M 10.796875 72.90625 
L 49.515625 72.90625 
L 49.515625 64.59375 
L 19.828125 64.59375 
L 19.828125 46.734375 
Q 21.96875 47.46875 24.109375 47.828125 
Q 26.265625 48.1875 28.421875 48.1875 
Q 40.625 48.1875 47.75 41.5 
Q 54.890625 34.8125 54.890625 23.390625 
Q 54.890625 11.625 47.5625 5.09375 
Q 40.234375 -1.421875 26.90625 -1.421875 
Q 22.3125 -1.421875 17.546875 -0.640625 
Q 12.796875 0.140625 7.71875 1.703125 
L 7.71875 11.625 
Q 12.109375 9.234375 16.796875 8.0625 
Q 21.484375 6.890625 26.703125 6.890625 
Q 35.15625 6.890625 40.078125 11.328125 
Q 45.015625 15.765625 45.015625 23.390625 
Q 45.015625 31 40.078125 35.4375 
Q 35.15625 39.890625 26.703125 39.890625 
Q 22.75 39.890625 18.8125 39.015625 
Q 14.890625 38.140625 10.796875 36.28125 
z
" id="DejaVuSans-53"/>
     </defs>
     <g transform="translate(812.44 365.68875)scale(0.1 -0.1)">
      <use xlink:href="#DejaVuSans-53"/>
     </g>
    </g>
    <g id="PathCollection_29">
     <g>
      <use style="fill:#32cd32;stroke:#32cd32;" x="794.44" xlink:href="#md1c5f68eff" y="377.741875"/>
     </g>
    </g>
    <g id="text_17">
     <!-- 6 -->
     <defs>
      <path d="M 33.015625 40.375 
Q 26.375 40.375 22.484375 35.828125 
Q 18.609375 31.296875 18.609375 23.390625 
Q 18.609375 15.53125 22.484375 10.953125 
Q 26.375 6.390625 33.015625 6.390625 
Q 39.65625 6.390625 43.53125 10.953125 
Q 47.40625 15.53125 47.40625 23.390625 
Q 47.40625 31.296875 43.53125 35.828125 
Q 39.65625 40.375 33.015625 40.375 
z
M 52.59375 71.296875 
L 52.59375 62.3125 
Q 48.875 64.0625 45.09375 64.984375 
Q 41.3125 65.921875 37.59375 65.921875 
Q 27.828125 65.921875 22.671875 59.328125 
Q 17.53125 52.734375 16.796875 39.40625 
Q 19.671875 43.65625 24.015625 45.921875 
Q 28.375 48.1875 33.59375 48.1875 
Q 44.578125 48.1875 50.953125 41.515625 
Q 57.328125 34.859375 57.328125 23.390625 
Q 57.328125 12.15625 50.6875 5.359375 
Q 44.046875 -1.421875 33.015625 -1.421875 
Q 20.359375 -1.421875 13.671875 8.265625 
Q 6.984375 17.96875 6.984375 36.375 
Q 6.984375 53.65625 15.1875 63.9375 
Q 23.390625 74.21875 37.203125 74.21875 
Q 40.921875 74.21875 44.703125 73.484375 
Q 48.484375 72.75 52.59375 71.296875 
z
" id="DejaVuSans-54"/>
     </defs>
     <g transform="translate(812.44 380.366875)scale(0.1 -0.1)">
      <use xlink:href="#DejaVuSans-54"/>
     </g>
    </g>
    <g id="PathCollection_30">
     <g>
      <use style="fill:#32cd32;stroke:#32cd32;" x="794.44" xlink:href="#m2a44568ed7" y="392.42"/>
     </g>
    </g>
    <g id="text_18">
     <!-- 7 -->
     <defs>
      <path d="M 8.203125 72.90625 
L 55.078125 72.90625 
L 55.078125 68.703125 
L 28.609375 0 
L 18.3125 0 
L 43.21875 64.59375 
L 8.203125 64.59375 
z
" id="DejaVuSans-55"/>
     </defs>
     <g transform="translate(812.44 395.045)scale(0.1 -0.1)">
      <use xlink:href="#DejaVuSans-55"/>
     </g>
    </g>
    <g id="PathCollection_31">
     <g>
      <use style="fill:#ff8c00;stroke:#ff8c00;" x="794.44" xlink:href="#m3928f1c078" y="407.098125"/>
     </g>
    </g>
    <g id="text_19">
     <!-- 8 -->
     <defs>
      <path d="M 31.78125 34.625 
Q 24.75 34.625 20.71875 30.859375 
Q 16.703125 27.09375 16.703125 20.515625 
Q 16.703125 13.921875 20.71875 10.15625 
Q 24.75 6.390625 31.78125 6.390625 
Q 38.8125 6.390625 42.859375 10.171875 
Q 46.921875 13.96875 46.921875 20.515625 
Q 46.921875 27.09375 42.890625 30.859375 
Q 38.875 34.625 31.78125 34.625 
z
M 21.921875 38.8125 
Q 15.578125 40.375 12.03125 44.71875 
Q 8.5 49.078125 8.5 55.328125 
Q 8.5 64.0625 14.71875 69.140625 
Q 20.953125 74.21875 31.78125 74.21875 
Q 42.671875 74.21875 48.875 69.140625 
Q 55.078125 64.0625 55.078125 55.328125 
Q 55.078125 49.078125 51.53125 44.71875 
Q 48 40.375 41.703125 38.8125 
Q 48.828125 37.15625 52.796875 32.3125 
Q 56.78125 27.484375 56.78125 20.515625 
Q 56.78125 9.90625 50.3125 4.234375 
Q 43.84375 -1.421875 31.78125 -1.421875 
Q 19.734375 -1.421875 13.25 4.234375 
Q 6.78125 9.90625 6.78125 20.515625 
Q 6.78125 27.484375 10.78125 32.3125 
Q 14.796875 37.15625 21.921875 38.8125 
z
M 18.3125 54.390625 
Q 18.3125 48.734375 21.84375 45.5625 
Q 25.390625 42.390625 31.78125 42.390625 
Q 38.140625 42.390625 41.71875 45.5625 
Q 45.3125 48.734375 45.3125 54.390625 
Q 45.3125 60.0625 41.71875 63.234375 
Q 38.140625 66.40625 31.78125 66.40625 
Q 25.390625 66.40625 21.84375 63.234375 
Q 18.3125 60.0625 18.3125 54.390625 
z
" id="DejaVuSans-56"/>
     </defs>
     <g transform="translate(812.44 409.723125)scale(0.1 -0.1)">
      <use xlink:href="#DejaVuSans-56"/>
     </g>
    </g>
    <g id="PathCollection_32">
     <g>
      <use style="fill:#ff0000;stroke:#ff0000;stroke-width:1.5;" x="794.44" xlink:href="#m552b7abbae" y="421.77625"/>
     </g>
    </g>
    <g id="text_20">
     <!-- 9 -->
     <defs>
      <path d="M 10.984375 1.515625 
L 10.984375 10.5 
Q 14.703125 8.734375 18.5 7.8125 
Q 22.3125 6.890625 25.984375 6.890625 
Q 35.75 6.890625 40.890625 13.453125 
Q 46.046875 20.015625 46.78125 33.40625 
Q 43.953125 29.203125 39.59375 26.953125 
Q 35.25 24.703125 29.984375 24.703125 
Q 19.046875 24.703125 12.671875 31.3125 
Q 6.296875 37.9375 6.296875 49.421875 
Q 6.296875 60.640625 12.9375 67.421875 
Q 19.578125 74.21875 30.609375 74.21875 
Q 43.265625 74.21875 49.921875 64.515625 
Q 56.59375 54.828125 56.59375 36.375 
Q 56.59375 19.140625 48.40625 8.859375 
Q 40.234375 -1.421875 26.421875 -1.421875 
Q 22.703125 -1.421875 18.890625 -0.6875 
Q 15.09375 0.046875 10.984375 1.515625 
z
M 30.609375 32.421875 
Q 37.25 32.421875 41.125 36.953125 
Q 45.015625 41.5 45.015625 49.421875 
Q 45.015625 57.28125 41.125 61.84375 
Q 37.25 66.40625 30.609375 66.40625 
Q 23.96875 66.40625 20.09375 61.84375 
Q 16.21875 57.28125 16.21875 49.421875 
Q 16.21875 41.5 20.09375 36.953125 
Q 23.96875 32.421875 30.609375 32.421875 
z
" id="DejaVuSans-57"/>
     </defs>
     <g transform="translate(812.44 424.40125)scale(0.1 -0.1)">
      <use xlink:href="#DejaVuSans-57"/>
     </g>
    </g>
    <g id="PathCollection_33">
     <g>
      <use style="fill:#ff8c00;stroke:#ff8c00;stroke-width:1.5;" x="794.44" xlink:href="#m60bbc8623e" y="436.454375"/>
     </g>
    </g>
    <g id="text_21">
     <!-- 10 -->
     <g transform="translate(812.44 439.079375)scale(0.1 -0.1)">
      <use xlink:href="#DejaVuSans-49"/>
      <use x="63.623047" xlink:href="#DejaVuSans-48"/>
     </g>
    </g>
    <g id="PathCollection_34">
     <g>
      <use style="fill:#ff8c00;stroke:#ff8c00;" x="794.44" xlink:href="#m14ef67ab09" y="451.1325"/>
     </g>
    </g>
    <g id="text_22">
     <!-- 11 -->
     <g transform="translate(812.44 453.7575)scale(0.1 -0.1)">
      <use xlink:href="#DejaVuSans-49"/>
      <use x="63.623047" xlink:href="#DejaVuSans-49"/>
     </g>
    </g>
    <g id="PathCollection_35">
     <g>
      <use style="fill:#1e90ff;stroke:#1e90ff;" x="794.44" xlink:href="#m0ea7237b12" y="465.810625"/>
     </g>
    </g>
    <g id="text_23">
     <!-- 12 -->
     <g transform="translate(812.44 468.435625)scale(0.1 -0.1)">
      <use xlink:href="#DejaVuSans-49"/>
      <use x="63.623047" xlink:href="#DejaVuSans-50"/>
     </g>
    </g>
    <g id="PathCollection_36">
     <g>
      <use style="fill:#32cd32;stroke:#32cd32;" x="794.44" xlink:href="#m5b16224c19" y="480.48875"/>
     </g>
    </g>
    <g id="text_24">
     <!-- 13 -->
     <g transform="translate(812.44 483.11375)scale(0.1 -0.1)">
      <use xlink:href="#DejaVuSans-49"/>
      <use x="63.623047" xlink:href="#DejaVuSans-51"/>
     </g>
    </g>
    <g id="PathCollection_37">
     <g>
      <use style="fill:#ff8c00;stroke:#ff8c00;" x="794.44" xlink:href="#m104b3b7511" y="495.166875"/>
     </g>
    </g>
    <g id="text_25">
     <!-- 14 -->
     <g transform="translate(812.44 497.791875)scale(0.1 -0.1)">
      <use xlink:href="#DejaVuSans-49"/>
      <use x="63.623047" xlink:href="#DejaVuSans-52"/>
     </g>
    </g>
    <g id="PathCollection_38">
     <g>
      <use style="fill:#32cd32;stroke:#32cd32;stroke-width:1.5;" x="794.44" xlink:href="#mcebc2a5d47" y="509.845"/>
     </g>
    </g>
    <g id="text_26">
     <!-- 15 -->
     <g transform="translate(812.44 512.47)scale(0.1 -0.1)">
      <use xlink:href="#DejaVuSans-49"/>
      <use x="63.623047" xlink:href="#DejaVuSans-53"/>
     </g>
    </g>
    <g id="PathCollection_39">
     <g>
      <use style="fill:#1e90ff;stroke:#1e90ff;stroke-width:1.5;" x="794.44" xlink:href="#m8ea6def80a" y="524.523125"/>
     </g>
    </g>
    <g id="text_27">
     <!-- 16 -->
     <g transform="translate(812.44 527.148125)scale(0.1 -0.1)">
      <use xlink:href="#DejaVuSans-49"/>
      <use x="63.623047" xlink:href="#DejaVuSans-54"/>
     </g>
    </g>
    <g id="PathCollection_40">
     <g>
      <use style="fill:#32cd32;stroke:#32cd32;stroke-width:1.5;" x="794.44" xlink:href="#mb62803d565" y="539.20125"/>
     </g>
    </g>
    <g id="text_28">
     <!-- 17 -->
     <g transform="translate(812.44 541.82625)scale(0.1 -0.1)">
      <use xlink:href="#DejaVuSans-49"/>
      <use x="63.623047" xlink:href="#DejaVuSans-55"/>
     </g>
    </g>
    <g id="PathCollection_41">
     <g>
      <use style="fill:#ff0000;stroke:#ff0000;stroke-width:1.5;" x="794.44" xlink:href="#m54cf89cd80" y="553.879375"/>
     </g>
    </g>
    <g id="text_29">
     <!-- 18 -->
     <g transform="translate(812.44 556.504375)scale(0.1 -0.1)">
      <use xlink:href="#DejaVuSans-49"/>
      <use x="63.623047" xlink:href="#DejaVuSans-56"/>
     </g>
    </g>
    <g id="PathCollection_42">
     <g>
      <use style="fill:#1e90ff;stroke:#1e90ff;stroke-width:1.5;" x="794.44" xlink:href="#m8ea6def80a" y="568.5575"/>
     </g>
    </g>
    <g id="text_30">
     <!-- 19 -->
     <g transform="translate(812.44 571.1825)scale(0.1 -0.1)">
      <use xlink:href="#DejaVuSans-49"/>
      <use x="63.623047" xlink:href="#DejaVuSans-57"/>
     </g>
    </g>
    <g id="PathCollection_43">
     <g>
      <use style="fill:#ffd700;stroke:#ffd700;stroke-width:1.5;" x="794.44" xlink:href="#m46b0545d11" y="583.235625"/>
     </g>
    </g>
    <g id="text_31">
     <!-- 20 -->
     <g transform="translate(812.44 585.860625)scale(0.1 -0.1)">
      <use xlink:href="#DejaVuSans-50"/>
      <use x="63.623047" xlink:href="#DejaVuSans-48"/>
     </g>
    </g>
   </g>
   <g id="line2d_10">
    <path clip-path="url(#p366ff7b6f1)" d="M 110.16 768.96 
L 775.44 103.68 
" style="fill:none;stroke:#ff7f0e;stroke-linecap:square;stroke-opacity:0.75;stroke-width:1.5;"/>
   </g>
  </g>
 </g>
 <defs>
  <clipPath id="p366ff7b6f1">
   <rect height="665.28" width="665.28" x="110.16" y="103.68"/>
  </clipPath>
 </defs>
</svg>
